<svg height="200px" width="200px" version="1.1" id="Layer_1" xmlns="http://www.w3.org/2000/svg" xmlns:xlink="http://www.w3.org/1999/xlink" viewBox="0 0 392.597 392.597" xml:space="preserve" fill="#000000"><g id="SVGRepo_bgCarrier" stroke-width="0"></g><g id="SVGRepo_tracerCarrier" stroke-linecap="round" stroke-linejoin="round"></g><g id="SVGRepo_iconCarrier"> <path style="fill:#56ACE0;" d="M334.642,223.935c0,0,14.352,1.422,14.352-10.925V54.497c0-6.012-4.848-10.925-10.925-10.925H54.594 c-6.012,0-10.925,4.848-10.925,10.925v158.578c0,6.012,4.848,10.925,10.925,10.925h117.01"></path> <g> <path style="fill:#194F82;" d="M322.165,80.614H70.432c-6.012,0-10.925-4.848-10.925-10.925c0-6.012,4.848-10.925,10.925-10.925 h251.733c6.012,0,10.925,4.848,10.925,10.925C333.091,75.701,328.113,80.614,322.165,80.614z"></path> <path style="fill:#194F82;" d="M322.165,127.483H70.432c-6.012,0-10.925-4.848-10.925-10.925c0-6.012,4.848-10.925,10.925-10.925 h251.733c6.012,0,10.925,4.848,10.925,10.925C333.091,122.634,328.113,127.483,322.165,127.483z"></path> <path style="fill:#194F82;" d="M149.301,180.558H70.432c-6.012,0-10.925-4.848-10.925-10.925c0-6.012,4.848-10.925,10.925-10.925 h78.869c6.012,0,10.925,4.848,10.925,10.925C160.226,175.709,155.313,180.558,149.301,180.558z"></path> <path style="fill:#194F82;" d="M359.79,0H32.808C14.707,0,0.032,14.675,0.032,32.711v202.15c0,18.036,14.675,32.711,32.711,32.711 h153.147v26.246c0,6.012,4.848,10.925,10.925,10.925h14.287v76.865c-0.323,7.628,9.051,14.61,17.648,8.598l24.436-19.071 l24.436,19.071c7.758,5.56,17.39,0.905,17.648-8.598v-76.929h14.158c6.012,0,10.925-4.848,10.925-10.925v-26.246h39.499 c18.036,0,32.711-14.675,32.711-32.711V32.711C392.565,14.675,377.891,0,359.79,0z M273.293,359.24l-13.511-10.602 c-3.943-3.103-9.503-3.103-13.446,0l-13.511,10.602v-46.933l12.541,12.541c5.172,4.655,10.796,4.008,15.451,0l12.541-12.541 L273.293,359.24L273.293,359.24z M301.672,253.156c-2.004,2.004-3.168,4.784-3.168,7.758v22.109H276.46 c-2.844,0-5.624,1.164-7.758,3.168l-15.58,15.58l-15.644-15.644c-2.004-2.004-4.784-3.168-7.758-3.168h-22.109v-22.109 c0-2.844-1.164-5.624-3.168-7.758l-15.58-15.58l15.58-15.58c2.004-2.004,3.168-4.784,3.168-7.758v-22.109h22.109 c2.844,0,5.624-1.164,7.758-3.168l15.58-15.58l15.58,15.58c2.004,2.004,4.784,3.168,7.758,3.168h22.109v22.109 c0,2.844,1.164,5.624,3.168,7.758l15.58,15.58L301.672,253.156z M370.78,234.796c0,6.012-4.848,10.925-10.925,10.925h-19.911 c0,0,9.051-7.434,0.517-15.968l-20.17-20.17v-28.509c0-6.012-4.849-10.925-10.925-10.925h-28.509l-20.105-20.105 c-4.267-4.267-11.119-4.267-15.451,0l-20.105,20.105h-28.509c-6.012,0-10.925,4.848-10.925,10.925v28.509l-20.17,20.17 c-8.339,8.339,0.517,15.968,0.517,15.968H32.808c-6.012,0-10.925-4.848-10.925-10.925V32.711c0-6.012,4.848-10.925,10.925-10.925 h327.111c6.012,0,10.925,4.848,10.925,10.925v202.085H370.78z"></path> </g> <path style="fill:#FFFFFF;" d="M245.365,324.849l-12.541-12.541v46.933l13.511-10.602c3.943-3.103,9.503-3.103,13.446,0 l13.511,10.602v-46.804l-12.477,12.477C256.291,328.857,250.537,329.503,245.365,324.849z"></path> <path style="fill:#FFC10D;" d="M301.672,253.156l15.58-15.58l-15.58-15.644c-2.004-2.004-3.168-4.784-3.168-7.758v-22.109H276.46 c-2.844,0-5.624-1.164-7.758-3.168l-15.58-15.58l-15.58,15.58c-2.004,2.004-4.784,3.168-7.758,3.168h-22.109v22.109 c0,2.844-1.164,5.624-3.168,7.758l-15.58,15.58l15.58,15.58c2.004,2.004,3.168,4.784,3.168,7.758v22.109h22.109 c2.844,0,5.624,1.164,7.758,3.168l15.58,15.58l15.58-15.58c2.004-2.004,4.784-3.168,7.758-3.168h22.109v-22.109 C298.505,257.939,299.604,255.16,301.672,253.156z"></path> </g></svg>