<svg height="200px" width="200px" version="1.1" id="Layer_1" xmlns="http://www.w3.org/2000/svg" xmlns:xlink="http://www.w3.org/1999/xlink" viewBox="0 0 392.525 392.525" xml:space="preserve" fill="#000000"><g id="SVGRepo_bgCarrier" stroke-width="0"></g><g id="SVGRepo_tracerCarrier" stroke-linecap="round" stroke-linejoin="round"></g><g id="SVGRepo_iconCarrier"> <path style="fill:#FFFFFF;" d="M32.771,245.333h327.111c6.012,0,10.925-4.848,10.925-10.925V32.711 c0-6.012-4.848-10.925-10.925-10.925H32.771c-6.012,0-10.925,4.848-10.925,10.925v201.697 C21.846,240.42,26.759,245.333,32.771,245.333z"></path> <path style="fill:#FFC10D;" d="M338.032,43.572H54.621c-6.012,0-10.925,4.848-10.925,10.925v3.556h40.275 c6.012,0,10.925,4.848,10.925,10.925c0,6.077-4.848,10.925-10.925,10.925H43.632v14.933h7.499c6.012,0,10.925,4.848,10.925,10.925 c0,6.077-4.848,10.925-10.925,10.925h-7.499v96.065c0,6.012,4.848,10.925,10.925,10.925h283.539c6.012,0,10.925-4.848,10.925-10.925 V54.497C349.021,48.42,344.044,43.572,338.032,43.572z"></path> <g> <path style="fill:#194F82;" d="M137.886,166.917h-7.822V89.212c-0.129-9.762-11.442-14.481-18.618-7.758l-26.182,26.246 c-4.267,4.267-4.267,11.119,0,15.451c4.267,4.267,11.119,4.267,15.451,0l7.564-7.564v51.329h-7.822 c-6.012,0-10.925,4.848-10.925,10.925c0,6.012,4.848,10.925,10.925,10.925h37.495c6.012,0,10.925-4.848,10.925-10.925 C148.876,171.766,143.963,166.917,137.886,166.917z"></path> <path style="fill:#194F82;" d="M299.696,166.917h-7.822V89.212c-0.129-9.762-11.442-14.481-18.618-7.758l-26.182,26.246 c-4.267,4.267-4.267,11.119,0,15.451c4.267,4.267,11.119,4.267,15.451,0l7.564-7.564v51.329h-7.822 c-6.012,0-10.925,4.848-10.925,10.925c0,6.012,4.848,10.925,10.925,10.925h37.495c6.012,0,10.925-4.848,10.925-10.925 C310.686,171.766,305.773,166.917,299.696,166.917z"></path> <path style="fill:#194F82;" d="M225.159,104.727c-4.267-4.267-11.119-4.267-15.451,0l-13.382,13.446l-13.382-13.382 c-4.267-4.267-11.119-4.267-15.451,0c-4.267,4.267-4.267,11.119,0,15.451l13.382,13.382l-13.382,13.382 c-4.267,4.267-4.267,11.119,0,15.451c4.655,4.59,11.378,3.943,15.451,0l13.382-13.382l13.382,13.382 c4.073,3.943,10.796,4.59,15.451,0c4.267-4.267,4.267-11.119,0-15.451l-13.382-13.446l13.382-13.382 C229.425,115.911,229.425,108.994,225.159,104.727z"></path> <path style="fill:#194F82;" d="M359.882,0H32.771C14.735,0,0.06,14.675,0.06,32.711v201.697c0,18.036,14.675,32.711,32.711,32.711 h68.137L67.809,378.57c-1.681,5.818,1.552,11.83,7.37,13.511s11.83-1.552,13.511-7.37l15.903-53.527h182.691l15.903,53.527 c1.681,5.818,7.822,9.051,13.511,7.37c5.818-1.681,9.051-7.822,7.37-13.511l-33.164-111.321h68.849 c18.036,0,32.711-14.675,32.711-32.711V32.711C392.593,14.675,377.918,0,359.882,0z M111.122,309.398l12.606-42.279h144.549 l12.606,42.279H111.122z M370.807,234.408c0,6.012-4.848,10.925-10.925,10.925H32.771c-6.012,0-10.925-4.848-10.925-10.925V32.711 c0-6.012,4.848-10.925,10.925-10.925h327.111c6.012,0,10.925,4.848,10.925,10.925V234.408L370.807,234.408z"></path> </g> </g></svg>