<svg viewBox="0 0 64 64" fill="none" xmlns="http://www.w3.org/2000/svg"><g id="SVGRepo_bgCarrier" stroke-width="0"></g><g id="SVGRepo_tracerCarrier" stroke-linecap="round" stroke-linejoin="round"></g><g id="SVGRepo_iconCarrier"> <g clip-path="url(#clip0_14_1960)"> <path d="M25.545 8H11C9.34315 8 8 9.34315 8 11V28.931C8 30.5879 9.34315 31.931 11 31.931H25.545C27.2019 31.931 28.545 30.5879 28.545 28.931V11C28.545 9.34315 27.2019 8 25.545 8Z" stroke="#000000" stroke-width="4" stroke-linecap="round" stroke-linejoin="round"></path> <path d="M52.94 8H38.395C36.7382 8 35.395 9.34315 35.395 11V15.272C35.395 16.9289 36.7382 18.272 38.395 18.272H52.94C54.5969 18.272 55.94 16.9289 55.94 15.272V11C55.94 9.34315 54.5969 8 52.94 8Z" stroke="#426AB2" stroke-width="4" stroke-linecap="round" stroke-linejoin="round"></path> <path d="M52.94 25.121H38.395C36.7382 25.121 35.395 26.4641 35.395 28.121V52.94C35.395 54.5969 36.7382 55.94 38.395 55.94H52.94C54.5969 55.94 55.94 54.5969 55.94 52.94V28.121C55.94 26.4641 54.5969 25.121 52.94 25.121Z" stroke="#000000" stroke-width="4" stroke-linecap="round" stroke-linejoin="round"></path> <path d="M25.545 38.818H11C9.34315 38.818 8 40.1611 8 41.818V52.939C8 54.5958 9.34315 55.939 11 55.939H25.545C27.2019 55.939 28.545 54.5958 28.545 52.939V41.818C28.545 40.1611 27.2019 38.818 25.545 38.818Z" stroke="#426AB2" stroke-width="4" stroke-linecap="round" stroke-linejoin="round"></path> </g> <defs> <clipPath id="clip0_14_1960"> <rect width="51.94" height="51.939" fill="white" transform="translate(6 6)"></rect> </clipPath> </defs> </g></svg>