<svg height="200px" width="200px" version="1.1" id="Layer_1" xmlns="http://www.w3.org/2000/svg" xmlns:xlink="http://www.w3.org/1999/xlink" viewBox="0 0 392.632 392.632" xml:space="preserve" fill="#000000"><g id="SVGRepo_bgCarrier" stroke-width="0"></g><g id="SVGRepo_tracerCarrier" stroke-linecap="round" stroke-linejoin="round"></g><g id="SVGRepo_iconCarrier"> <path style="fill:#FFC10D;" d="M363.492,333.183L167.161,136.399c-3.103-3.103-4.008-7.822-2.392-11.83 c11.442-27.927,5.107-59.733-16.226-81.067c-13.964-13.964-37.56-25.083-64-20.881l21.01,21.075 c17.067,17.067,17.131,45.059,0,62.061c-14.222,14.093-40.339,20.428-61.996,0L22.74,84.876 c-3.426,22.432,3.491,45.446,19.006,62.255c30.707,33.164,73.956,23.273,82.424,17.907c1.228-0.776,7.176-2.263,11.895,2.392 l134.982,135.305l18.23-18.295c4.267-4.267,11.119-4.267,15.451,0c4.267,4.267,4.267,11.119,0,15.451l-18.295,18.295l14.933,14.933 l10.925-10.99c4.267-4.267,11.119-4.267,15.451,0c4.267,4.267,4.267,11.119,0,15.451l-10.99,10.925l15.709,15.709 c10.667,10.667,24.63,6.335,30.966,0C372.09,355.744,372.09,341.716,363.492,333.183z"></path> <polygon style="fill:#FFFFFF;" points="328.583,150.621 366.272,112.803 306.732,53.07 220.041,31.736 214.999,36.843 "></polygon> <g> <polygon style="fill:#56ACE0;" points="249.068,101.878 206.272,144.803 238.983,177.449 281.714,134.589 "></polygon> <path style="fill:#56ACE0;" d="M28.946,322.581c-8.857,8.857-10.149,22.303-0.065,32.388c0,0,15.968,16.226,32,1.034 l116.299-116.558l-32.711-32.711L28.946,322.581z"></path> </g> <path style="fill:#194F82;" d="M254.304,192.9l42.731-42.861l23.725,23.79c4.461,4.461,11.442,4.008,15.451,0l53.139-53.333 c4.267-4.267,4.267-11.119,0-15.386l-69.301-69.689c-1.422-1.422-3.168-2.392-5.107-2.844L219.266,9.11 c-3.685-0.905-7.628,0.129-10.343,2.844l-17.067,17.067c-4.267,4.267-4.267,11.119,0,15.386l41.826,41.956l-42.731,42.861 l-3.426-3.426c11.119-34.327,2.263-72.016-23.467-97.81C145.957,9.821,107.621-11.254,59.718,7.041 c-3.426,1.293-11.83,9.503-3.556,17.778l34.133,34.263c8.598,8.598,8.598,22.626,0,31.224c-7.887,7.887-21.915,9.115-31.095,0 L25.068,56.302C15.5,48.48,8.583,56.56,7.225,59.922C-6.738,94.96,0.567,135.041,25.908,162.128 c18.36,19.653,51.911,39.434,99.685,25.729l3.426,3.426L12.785,307.841c-17.002,17.067-16.873,44.671,0,61.867 c21.333,21.851,49.713,16.226,63.547,1.681l116.17-116.493l124.574,124.897c13.511,14.158,41.956,19.846,61.802,0 c17.067-17.067,17.002-44.8,0-61.867L254.304,192.9z M214.999,36.714l5.042-5.042l86.691,21.333l59.669,59.733l-37.818,37.883 L214.999,36.714z M249.068,101.813l32.582,32.776l-42.731,42.861l-32.582-32.776L249.068,101.813z M60.817,356.068 c-15.968,15.127-32-1.099-32-1.099c-10.149-10.02-8.792-23.467,0.065-32.388l115.653-115.846l32.582,32.776L60.817,356.068z M363.492,364.407c-6.335,6.335-20.234,10.667-30.966,0l-15.709-15.774l10.99-10.99c4.267-4.267,4.267-11.184,0-15.451 c-4.267-4.267-11.184-4.267-15.451,0l-10.925,11.055l-14.933-14.933l18.295-18.295c4.267-4.267,4.267-11.184,0-15.451 s-11.184-4.267-15.451,0l-18.23,18.295L136.195,167.558c-4.655-4.655-10.667-3.168-11.895-2.392 c-8.404,5.301-51.782,15.192-82.424-17.907c-15.515-16.743-22.432-39.822-19.006-62.255l20.816,20.881 c21.657,20.428,47.774,14.093,61.996,0c17.131-17.002,17.067-44.994,0-62.061L84.542,22.686c26.376-4.267,49.972,6.788,64,20.881 c21.269,21.333,27.604,53.139,16.226,81.067c-1.681,4.073-0.711,8.727,2.392,11.83l196.331,196.784 C372.09,341.845,372.09,355.809,363.492,364.407z"></path> </g></svg>