<?xml version="1.0" encoding="utf-8"?>
<!-- Generator: Adobe Illustrator 27.5.0, SVG Export Plug-In . SVG Version: 6.00 Build 0)  -->
<svg version="1.1" xmlns="http://www.w3.org/2000/svg" xmlns:xlink="http://www.w3.org/1999/xlink" x="0px" y="0px"
	 viewBox="0 0 500 500" style="enable-background:new 0 0 500 500;" xml:space="preserve">
<g id="Shadow">
	<g>
		<path style="fill:#C6FF00;" d="M392.226,103.846c-25.485-21.071-57.875-31.357-95.138-19.674
			c-36.826,11.547-58.682,45.657-91.384,63.819c-34.786,19.319-77.292,17.341-114.263,31.261
			c-26.131,9.839-45.294,31.052-51.784,58.318c-12.688,53.308,11.305,111.101,59.339,138.077
			c29.955,16.823,66.296,19.861,98.909,9.434c25.044-8.007,47.509-22.704,72.498-31.146c43.396-14.661,91.783-8.709,133.768-28.741
			c44.435-21.202,53.883-66.274,47.934-109.397C446.695,176.597,425.261,131.16,392.226,103.846z"/>
		<path style="opacity:0.8;fill:#FFFFFF;" d="M392.226,103.846c-25.485-21.071-57.875-31.357-95.138-19.674
			c-36.826,11.547-58.682,45.657-91.384,63.819c-34.786,19.319-77.292,17.341-114.263,31.261
			c-26.131,9.839-45.294,31.052-51.784,58.318c-12.688,53.308,11.305,111.101,59.339,138.077
			c29.955,16.823,66.296,19.861,98.909,9.434c25.044-8.007,47.509-22.704,72.498-31.146c43.396-14.661,91.783-8.709,133.768-28.741
			c44.435-21.202,53.883-66.274,47.934-109.397C446.695,176.597,425.261,131.16,392.226,103.846z"/>
	</g>
</g>
<g id="Window">
	<g>
		<g>
			<g>
				
					<rect x="84.546" y="120.333" style="fill:#FFFFFF;stroke:#263238;stroke-linecap:round;stroke-linejoin:round;stroke-miterlimit:10;" width="129.333" height="5.583"/>
				
					<rect x="84.546" y="127.415" style="fill:#FFFFFF;stroke:#263238;stroke-linecap:round;stroke-linejoin:round;stroke-miterlimit:10;" width="129.333" height="5.583"/>
				
					<rect x="84.546" y="134.496" style="fill:#FFFFFF;stroke:#263238;stroke-linecap:round;stroke-linejoin:round;stroke-miterlimit:10;" width="129.333" height="5.583"/>
				
					<rect x="84.546" y="141.578" style="fill:#FFFFFF;stroke:#263238;stroke-linecap:round;stroke-linejoin:round;stroke-miterlimit:10;" width="129.333" height="5.583"/>
				
					<rect x="84.546" y="148.659" style="fill:#FFFFFF;stroke:#263238;stroke-linecap:round;stroke-linejoin:round;stroke-miterlimit:10;" width="129.333" height="5.583"/>
				
					<rect x="84.546" y="155.74" style="fill:#FFFFFF;stroke:#263238;stroke-linecap:round;stroke-linejoin:round;stroke-miterlimit:10;" width="129.333" height="5.583"/>
				
					<rect x="84.546" y="162.822" style="fill:#FFFFFF;stroke:#263238;stroke-linecap:round;stroke-linejoin:round;stroke-miterlimit:10;" width="129.333" height="5.583"/>
				
					<rect x="84.546" y="169.903" style="fill:#FFFFFF;stroke:#263238;stroke-linecap:round;stroke-linejoin:round;stroke-miterlimit:10;" width="129.333" height="5.583"/>
				
					<rect x="84.546" y="176.985" style="fill:#FFFFFF;stroke:#263238;stroke-linecap:round;stroke-linejoin:round;stroke-miterlimit:10;" width="129.333" height="5.583"/>
				
					<rect x="84.546" y="184.066" style="fill:#FFFFFF;stroke:#263238;stroke-linecap:round;stroke-linejoin:round;stroke-miterlimit:10;" width="129.333" height="5.583"/>
				
					<rect x="84.546" y="191.148" style="fill:#FFFFFF;stroke:#263238;stroke-linecap:round;stroke-linejoin:round;stroke-miterlimit:10;" width="129.333" height="5.583"/>
				
					<rect x="84.546" y="198.229" style="fill:#FFFFFF;stroke:#263238;stroke-linecap:round;stroke-linejoin:round;stroke-miterlimit:10;" width="129.333" height="5.583"/>
				
					<rect x="84.546" y="205.311" style="fill:#FFFFFF;stroke:#263238;stroke-linecap:round;stroke-linejoin:round;stroke-miterlimit:10;" width="129.333" height="5.583"/>
				
					<rect x="84.546" y="212.392" style="fill:#FFFFFF;stroke:#263238;stroke-linecap:round;stroke-linejoin:round;stroke-miterlimit:10;" width="129.333" height="5.583"/>
				
					<rect x="84.546" y="219.473" style="fill:#FFFFFF;stroke:#263238;stroke-linecap:round;stroke-linejoin:round;stroke-miterlimit:10;" width="129.333" height="5.583"/>
				
					<rect x="84.546" y="226.555" style="fill:#FFFFFF;stroke:#263238;stroke-linecap:round;stroke-linejoin:round;stroke-miterlimit:10;" width="129.333" height="5.583"/>
			</g>
			
				<line style="fill:#FFFFFF;stroke:#263238;stroke-linecap:round;stroke-linejoin:round;stroke-miterlimit:10;" x1="84.546" y1="120.333" x2="84.546" y2="255.499"/>
			
				<rect x="82.691" y="252.429" style="fill:#FFFFFF;stroke:#263238;stroke-linecap:round;stroke-linejoin:round;stroke-miterlimit:10;" width="3.709" height="6.955"/>
		</g>
		<g>
			<g>
				
					<rect x="247.019" y="120.333" style="fill:#263238;stroke:#263238;stroke-linecap:round;stroke-linejoin:round;stroke-miterlimit:10;" width="152" height="58"/>
				
					<rect x="235.019" y="120.333" style="fill:#C6FF00;stroke:#263238;stroke-linecap:round;stroke-linejoin:round;stroke-miterlimit:10;" width="152" height="58"/>
				
					<rect x="307.019" y="120.333" style="fill:#263238;stroke:#263238;stroke-linecap:round;stroke-linejoin:round;stroke-miterlimit:10;" width="8" height="58"/>
				
					<rect x="296.352" y="143" style="fill:#FFFFFF;stroke:#263238;stroke-linecap:round;stroke-linejoin:round;stroke-miterlimit:10;" width="4.667" height="13.333"/>
				
					<rect x="320.686" y="143" style="fill:#FFFFFF;stroke:#263238;stroke-linecap:round;stroke-linejoin:round;stroke-miterlimit:10;" width="4.667" height="13.333"/>
			</g>
			
				<rect x="317.212" y="183" style="fill:#FFFFFF;stroke:#263238;stroke-linecap:round;stroke-linejoin:round;stroke-miterlimit:10;" width="35.333" height="44.667"/>
			
				<rect x="283.879" y="183" style="fill:#FFFFFF;stroke:#263238;stroke-linecap:round;stroke-linejoin:round;stroke-miterlimit:10;" width="22" height="27.811"/>
		</g>
	</g>
</g>
<g id="Character_1">
	<g>
		<g>
			<g>
				<defs>
					<path id="XMLID_3_" d="M180.352,185.783l9.954,40.584l24.404,20.527l-2.534,4.728l-29.679-14.367l-15.477-29.443
						C167.02,207.812,177.183,184.659,180.352,185.783z"/>
				</defs>
				<use xlink:href="#XMLID_3_"  style="overflow:visible;fill:#C6FF00;"/>
				<clipPath id="XMLID_00000008144686764615199890000012132707108295213981_">
					<use xlink:href="#XMLID_3_"  style="overflow:visible;"/>
				</clipPath>
				<path style="opacity:0.5;clip-path:url(#XMLID_00000008144686764615199890000012132707108295213981_);fill:#FFFFFF;" d="
					M180.352,185.783l9.954,40.584l24.404,20.527l-2.534,4.728l-29.679-14.367l-15.477-29.443
					C167.02,207.812,177.183,184.659,180.352,185.783z"/>
				
					<use xlink:href="#XMLID_3_"  style="overflow:visible;fill:none;stroke:#263238;stroke-linecap:round;stroke-linejoin:round;stroke-miterlimit:10;"/>
			</g>
			<polygon style="fill:#FFFFFF;stroke:#263238;stroke-linecap:round;stroke-linejoin:round;stroke-miterlimit:10;" points="
				157.606,390.698 173.032,399.223 147.458,399.223 149.894,390.293 			"/>
			<path style="fill:#263238;stroke:#263238;stroke-linecap:round;stroke-linejoin:round;stroke-miterlimit:10;" d="
				M120.728,248.141c0,0-4.871,20.703-3.247,25.574c1.624,4.871,9.742,51.554,9.742,51.554l-10.554,65.024l7.713,0.406
				l25.574-66.242l-5.277-47.9l3.248,0.812l12.178,48.306l-10.039,64.928h7.713l18.564-76.7l-14.208-53.583l0.406-7.307
				L120.728,248.141z"/>
			<g>
				<defs>
					<path id="XMLID_2_" d="M152.899,175.784c0,0-22.225,4.262-23.443,4.871c-1.218,0.609-2.74,3.653-2.131,5.48
						c0.609,1.827-6.089,54.192-6.698,58.454c-0.609,4.262,1.218,6.089,4.262,7.611c3.045,1.522,32.576,2.435,35.621,2.435
						c3.044,0,2.436-3.958,3.044-5.176c0.609-1.218,17.049-59.672,17.354-61.499c0.304-1.827-0.609-2.436-3.653-5.176
						c-3.044-2.74-14.309-8.525-14.309-8.525L152.899,175.784z"/>
				</defs>
				<use xlink:href="#XMLID_2_"  style="overflow:visible;fill:#C6FF00;"/>
				<clipPath id="XMLID_00000101076346202615052960000017413557799743572410_">
					<use xlink:href="#XMLID_2_"  style="overflow:visible;"/>
				</clipPath>
				<path style="opacity:0.5;clip-path:url(#XMLID_00000101076346202615052960000017413557799743572410_);fill:#FFFFFF;" d="
					M152.899,175.784c0,0-22.225,4.262-23.443,4.871c-1.218,0.609-2.74,3.653-2.131,5.48c0.609,1.827-6.089,54.192-6.698,58.454
					c-0.609,4.262,1.218,6.089,4.262,7.611c3.045,1.522,32.576,2.435,35.621,2.435c3.044,0,2.436-3.958,3.044-5.176
					c0.609-1.218,17.049-59.672,17.354-61.499c0.304-1.827-0.609-2.436-3.653-5.176c-3.044-2.74-14.309-8.525-14.309-8.525
					L152.899,175.784z"/>
				
					<use xlink:href="#XMLID_2_"  style="overflow:visible;fill:none;stroke:#263238;stroke-linecap:round;stroke-linejoin:round;stroke-miterlimit:10;"/>
			</g>
			<polygon style="fill:#FFFFFF;stroke:#263238;stroke-linecap:round;stroke-linejoin:round;stroke-miterlimit:10;" points="
				124.382,390.698 139.807,399.223 114.233,399.223 116.669,390.293 			"/>
			<g>
				<defs>
					<path id="XMLID_1_" d="M131.656,180.102c0,0-7.834-0.356-7.122,20.652c0.145,4.27,2.493,24.925,3.205,29.554
						c0.712,4.629,19.94,43.441,19.94,43.441l5.697-0.712l-11.038-46.646l2.493-30.266"/>
				</defs>
				<use xlink:href="#XMLID_1_"  style="overflow:visible;fill:#C6FF00;"/>
				<clipPath id="XMLID_00000134234149741716447920000007693392771872718722_">
					<use xlink:href="#XMLID_1_"  style="overflow:visible;"/>
				</clipPath>
				<path style="opacity:0.5;clip-path:url(#XMLID_00000134234149741716447920000007693392771872718722_);fill:#FFFFFF;" d="
					M131.656,180.102c0,0-7.834-0.356-7.122,20.652c0.145,4.27,2.493,24.925,3.205,29.554c0.712,4.629,19.94,43.441,19.94,43.441
					l5.697-0.712l-11.038-46.646l2.493-30.266"/>
				
					<use xlink:href="#XMLID_1_"  style="overflow:visible;fill:none;stroke:#263238;stroke-linecap:round;stroke-linejoin:round;stroke-miterlimit:10;"/>
			</g>
			<path style="fill:#FFFFFF;stroke:#263238;stroke-linecap:round;stroke-linejoin:round;stroke-miterlimit:10;" d="M147.679,273.75
				c0,0,1.78,3.917,2.849,4.273c1.068,0.356,20.296,0.712,20.296,0.712s-3.561-2.493-6.053-3.917
				c-2.492-1.424-13.175-2.137-13.175-2.137L147.679,273.75z"/>
			<g>
				<path style="fill:#C6FF00;stroke:#263238;stroke-linecap:round;stroke-linejoin:round;stroke-miterlimit:10;" d="
					M157.77,168.477l-3.349,2.131l-5.48,7.307l3.653,16.745l5.785-7.002l3.653,5.176l4.262-3.653l5.785,5.785
					c0,0,0.304-8.829-2.131-15.831C167.512,172.13,161.119,166.346,157.77,168.477z"/>
				<path style="fill:#FFFFFF;stroke:#263238;stroke-linecap:round;stroke-linejoin:round;stroke-miterlimit:10;" d="
					M158.074,159.039c0,0-0.913,10.351-0.304,14.614c0.609,4.262,3.045,17.658,4.871,14.005c1.827-3.653,8.22-15.527,8.22-15.527
					S159.901,163.91,158.074,159.039z"/>
				<g>
					<path style="fill:#263238;stroke:#263238;stroke-linecap:round;stroke-linejoin:round;stroke-miterlimit:10;" d="
						M156.248,157.212c0,0-2.131-12.787-0.304-17.658c1.827-4.871,8.525-7.307,16.44-4.871c7.916,2.436,12.482,4.871,13.7,10.351
						c1.218,5.48-3.045,8.829-3.045,8.829s-3.653-8.525-7.916-9.438c-4.262-0.913-8.22-1.218-7.611,1.827
						c0.609,3.044,0.913,7.002-0.913,8.525c-1.827,1.522-2.131,2.131-3.045,4.567c-0.913,2.436-3.653,4.871-5.785,2.131
						C155.639,158.734,156.248,157.212,156.248,157.212z"/>
					<path style="fill:#FFFFFF;stroke:#263238;stroke-linecap:round;stroke-linejoin:round;stroke-miterlimit:10;" d="
						M158.379,158.126c0,0-0.609-3.958-3.349-2.436c-2.74,1.522,1.218,7.307,1.218,7.307s0.304,5.785,4.567,11.265
						c4.262,5.48,11.643,6.222,15.831,2.74c4.734-3.936,7.002-21.92,7.002-21.92s1.827-2.436-2.131-8.525
						c-3.958-6.089-17.354-6.089-18.267-3.653c-0.913,2.436,2.74,7.307,1.827,9.133c-0.913,1.827-3.653-0.304-4.262,3.044
						C160.205,158.43,159.596,160.866,158.379,158.126z"/>
					<path style="fill:none;stroke:#263238;stroke-linecap:round;stroke-linejoin:round;stroke-miterlimit:10;" d="M178.5,155.657
						c0,0-2.535,2.535-2.535,5.3c0,2.765,2.535,4.609,0.461,5.3c-2.074,0.691-2.765,0.23-2.765,0.23"/>
					<path style="fill:none;stroke:#263238;stroke-linecap:round;stroke-linejoin:round;stroke-miterlimit:10;" d="M172.739,170.175
						c0,0-2.996,0.461-4.839-1.844"/>
					<path style="fill:#263238;" d="M170.968,158.589c-0.215,0.856-0.74,1.462-1.174,1.353c-0.434-0.109-0.611-0.891-0.397-1.747
						c0.215-0.856,0.74-1.462,1.174-1.353C171.005,156.951,171.182,157.733,170.968,158.589z"/>
					<path style="fill:#263238;" d="M179.725,159.972c-0.215,0.856-0.74,1.462-1.174,1.353c-0.434-0.109-0.611-0.891-0.397-1.747
						c0.215-0.856,0.74-1.462,1.174-1.353C179.762,158.334,179.939,159.116,179.725,159.972z"/>
					<path style="fill:none;stroke:#263238;stroke-linecap:round;stroke-linejoin:round;stroke-miterlimit:10;" d="M167.669,152.891
						c0,0,1.844-2.074,5.07,0.461"/>
					<path style="fill:none;stroke:#263238;stroke-linecap:round;stroke-linejoin:round;stroke-miterlimit:10;" d="M179.422,154.965
						c0,0,2.304-0.922,2.765,1.383"/>
				</g>
				<path style="fill:#263238;stroke:#263238;stroke-linecap:round;stroke-linejoin:round;stroke-miterlimit:10;" d="
					M163.25,142.903c0,0,1.522,2.74,5.48,3.349c3.958,0.609,8.829,0,9.742,3.349c0.913,3.349,5.176,7.307,10.047,5.176
					c4.871-2.131,5.48-11.569,2.436-15.527c-3.045-3.958-6.698-3.349-10.351-4.871c-3.653-1.522-3.653-4.262-9.133-4.262
					c-5.48,0-11.874,5.176-8.22,8.22"/>
			</g>
		</g>
		<g>
			<path style="fill:#FFFFFF;stroke:#263238;stroke-linecap:round;stroke-linejoin:round;stroke-miterlimit:10;" d="M214.71,246.895
				l5.339-0.157l5.165,5.165l-0.753,1.169c0,0,1.614,1.937,1.937,3.551c0.323,1.614-0.968,3.874-0.968,3.874
				s-2.945-1.782-4.216-3.473c-1.271-1.691-6.15-2.009-9.037-5.401L214.71,246.895z"/>
			<path style="fill:none;stroke:#263238;stroke-linecap:round;stroke-linejoin:round;stroke-miterlimit:10;" d="M224.46,253.072
				l-4.317-2.834c0,0-2.511,2.109-4.921,0.502"/>
		</g>
	</g>
</g>
<g id="Character_2">
	<g>
		<path style="fill:#263238;stroke:#263238;stroke-linecap:round;stroke-linejoin:round;stroke-miterlimit:10;" d="M208.709,310.986
			h-17.208c-6.652,0-12.044-5.392-12.044-12.043v-53.85c0-6.652,5.392-12.044,12.044-12.044h17.208
			c6.652,0,12.044,5.392,12.044,12.044v53.85C220.752,305.594,215.36,310.986,208.709,310.986z"/>
		<g>
			<g>
				<path style="fill:#263238;stroke:#263238;stroke-linecap:round;stroke-linejoin:round;stroke-miterlimit:10;" d="
					M221.109,166.64c0,0-10.51-0.927-18.238,8.655c-7.728,9.583-6.019,25.968-6.019,27.204s-9.437,7.417-3.873,17.927
					c5.564,10.51,3.709,10.51,2.473,16.383c-1.236,5.873,3.71,12.055,14.838,14.528c11.128,2.473,19.784-2.164,24.111-8.964
					c4.328-6.801,8.655-20.093,8.346-25.038c-0.309-4.946-9.037-10.841-8.728-15.169c0.309-4.328,9.052-14.598,3.473-25.326
					C233.474,169.113,226.055,165.713,221.109,166.64z"/>
				<g>
					
						<path style="fill:none;stroke:#FFFFFF;stroke-width:0.5;stroke-linecap:round;stroke-linejoin:round;stroke-miterlimit:10;" d="
						M202.769,218.759c-0.301,0.255-0.63,0.513-0.987,0.774"/>
					
						<path style="fill:none;stroke:#FFFFFF;stroke-width:0.5;stroke-linecap:round;stroke-linejoin:round;stroke-miterlimit:10;" d="
						M229.899,171.584c0,0,4.268,6.778,2.51,10.293c-1.757,3.515-14.309,6.025-23.096,9.54c-8.786,3.515-11.046,7.531-7.531,13.556
						c2.866,4.913,5.398,8.324,2.696,12.002"/>
					
						<path style="fill:none;stroke:#FFFFFF;stroke-width:0.5;stroke-linecap:round;stroke-linejoin:round;stroke-miterlimit:10;" d="
						M223.854,170.595c1.073,2.012,1.621,5.021-1.486,8.269c-5.523,5.774-19.198,4.483-23.155,12.283
						c-3.957,7.8-0.443,10.813-0.443,10.813"/>
					
						<path style="fill:none;stroke:#FFFFFF;stroke-width:0.5;stroke-linecap:round;stroke-linejoin:round;stroke-miterlimit:10;" d="
						M221.865,168.07c0,0,0.377,0.314,0.855,0.875"/>
				</g>
			</g>
			<path style="fill:#FFFFFF;stroke:#263238;stroke-linecap:round;stroke-linejoin:round;stroke-miterlimit:10;" d="
				M237.134,224.162l11.704,30.71l22.008,16.596h12.628l4.329,5.412h-18.039l-24.995-13.138c-2.064-1.085-3.824-2.671-5.118-4.611
				l-8.13-12.195L237.134,224.162z"/>
			<g>
				<defs>
					<path id="XMLID_6_" d="M265.171,267.189l-16.332-12.316l-11.704-30.71l-5.613,22.773l8.13,12.195
						c1.294,1.941,3.053,3.526,5.118,4.611l13.743,7.224L265.171,267.189z"/>
				</defs>
				<use xlink:href="#XMLID_6_"  style="overflow:visible;fill:#C6FF00;"/>
				<clipPath id="XMLID_00000098205981139700430930000003060651524171147948_">
					<use xlink:href="#XMLID_6_"  style="overflow:visible;"/>
				</clipPath>
				<path style="opacity:0.6;clip-path:url(#XMLID_00000098205981139700430930000003060651524171147948_);fill:#FFFFFF;" d="
					M265.171,267.189l-16.332-12.316l-11.704-30.71l-5.613,22.773l8.13,12.195c1.294,1.941,3.053,3.526,5.118,4.611l13.743,7.224
					L265.171,267.189z"/>
				
					<use xlink:href="#XMLID_6_"  style="overflow:visible;fill:none;stroke:#263238;stroke-linecap:round;stroke-linejoin:round;stroke-miterlimit:10;"/>
			</g>
			<g>
				<defs>
					<path id="XMLID_4_" d="M214.084,200.824c0,0,0.515,12.386,0.515,15.108c0,2.722-5.837,4.292-5.837,4.292
						s-7.91,1.999-9.058,4.677c-2.17,5.063,8.115,28.996,8.743,30.253c0.628,1.257-2.094,25.547-2.094,25.547h37.902l-9.004-26.385
						c0,0,5.788-8.805,5.788-11.946c0-3.141-1.39-14.02-3.903-18.208c-2.513-4.188-10.367-7.259-11.205-7.887
						s-0.522-8.237-0.522-8.237l-9.423-5.654L214.084,200.824z"/>
				</defs>
				<use xlink:href="#XMLID_4_"  style="overflow:visible;fill:#C6FF00;"/>
				<clipPath id="XMLID_00000111191242507109943500000002362361094087298177_">
					<use xlink:href="#XMLID_4_"  style="overflow:visible;"/>
				</clipPath>
				<path style="opacity:0.6;clip-path:url(#XMLID_00000111191242507109943500000002362361094087298177_);fill:#FFFFFF;" d="
					M214.084,200.824c0,0,0.515,12.386,0.515,15.108c0,2.722-5.837,4.292-5.837,4.292s-7.91,1.999-9.058,4.677
					c-2.17,5.063,8.115,28.996,8.743,30.253c0.628,1.257-2.094,25.547-2.094,25.547h37.902l-9.004-26.385
					c0,0,5.788-8.805,5.788-11.946c0-3.141-1.39-14.02-3.903-18.208c-2.513-4.188-10.367-7.259-11.205-7.887
					s-0.522-8.237-0.522-8.237l-9.423-5.654L214.084,200.824z"/>
				
					<use xlink:href="#XMLID_4_"  style="overflow:visible;fill:none;stroke:#263238;stroke-linecap:round;stroke-linejoin:round;stroke-miterlimit:10;"/>
			</g>
			<path style="fill:#FFFFFF;stroke:#263238;stroke-linecap:round;stroke-linejoin:round;stroke-miterlimit:10;" d="
				M214.599,215.932c0,0.421-0.151,0.81-0.387,1.174l0.215,0.371c0,0,2.06,4.464,4.292,8.412c2.232,3.949,6.524,9.271,6.524,9.271
				l1.373-18.37l-0.084-0.176c-0.29-0.147-0.5-0.262-0.602-0.339c-0.237-0.178-0.38-0.925-0.465-1.892l-4.239-8.854l-5.241-3.144
				l-0.086-0.07l-1.716,0.953C214.332,207.02,214.599,213.974,214.599,215.932z"/>
			<g>
				<defs>
					<path id="XMLID_5_" d="M202.866,222.521c0,0-6.565,1.641-7.193,4.364c-0.628,2.722-12.145,33.714-9.632,36.227
						c2.513,2.513,18.846,11.727,20.521,12.564c1.675,0.838,24.919,1.256,25.547,0.209c0.628-1.047-3.35-4.816-6.91-6.073
						c-3.56-1.257-13.192,2.722-13.821,2.722c-0.628,0-15.915-13.192-15.915-13.192l9.214-24.709"/>
				</defs>
				<use xlink:href="#XMLID_5_"  style="overflow:visible;fill:#C6FF00;"/>
				<clipPath id="XMLID_00000082344484916936127210000013935381620308984476_">
					<use xlink:href="#XMLID_5_"  style="overflow:visible;"/>
				</clipPath>
				<path style="opacity:0.6;clip-path:url(#XMLID_00000082344484916936127210000013935381620308984476_);fill:#FFFFFF;" d="
					M202.866,222.521c0,0-6.565,1.641-7.193,4.364c-0.628,2.722-12.145,33.714-9.632,36.227
					c2.513,2.513,18.846,11.727,20.521,12.564c1.675,0.838,24.919,1.256,25.547,0.209c0.628-1.047-3.35-4.816-6.91-6.073
					c-3.56-1.257-13.192,2.722-13.821,2.722c-0.628,0-15.915-13.192-15.915-13.192l9.214-24.709"/>
				
					<use xlink:href="#XMLID_5_"  style="overflow:visible;fill:none;stroke:#263238;stroke-linecap:round;stroke-linejoin:round;stroke-miterlimit:10;"/>
			</g>
			<path style="fill:#FFFFFF;stroke:#263238;stroke-linecap:round;stroke-linejoin:round;stroke-miterlimit:10;" d="
				M225.199,269.812c-3.56-1.257-13.192,2.722-13.82,2.722c-0.394,0-6.542-5.179-11.079-9.047c-0.675,0.383-1.323,0.887-1.879,1.567
				c-1.145,1.4-2.345,2.854-3.339,4.055c5.096,3.051,10.55,6.101,11.481,6.566c1.675,0.838,24.919,1.257,25.547,0.21
				C232.737,274.838,228.758,271.069,225.199,269.812z"/>
			<g>
				<path style="fill:#FFFFFF;stroke:#263238;stroke-linecap:round;stroke-linejoin:round;stroke-miterlimit:10;" d="
					M211.967,191.628v4.019c0,0-1.78-0.738-3.709,0.927c-1.495,1.29,0.118,3.825,0.118,3.825c1.546,0.927,3.9,1.121,3.9,1.121
					s4.561,9.13,8.27,10.676c3.709,1.546,6.246,2.005,9.532-0.618c5.108-4.078,4.608-11.511,4.608-14.911
					c0-3.4,0.465-8.129,0.465-8.129L232.019,184C232.019,184,218.458,191.628,211.967,191.628z"/>
				<path style="fill:#263238;" d="M223.929,196.117c-0.105,0.876-0.55,1.544-0.994,1.491c-0.444-0.053-0.719-0.806-0.615-1.683
					c0.105-0.876,0.55-1.544,0.994-1.491C223.758,194.487,224.033,195.241,223.929,196.117z"/>
				<path style="fill:#263238;" d="M231.994,196.117c-0.105,0.876-0.55,1.544-0.994,1.491c-0.444-0.053-0.719-0.806-0.615-1.683
					c0.105-0.876,0.55-1.544,0.994-1.491C231.824,194.487,232.099,195.241,231.994,196.117z"/>
				<path style="fill:none;stroke:#263238;stroke-linecap:round;stroke-linejoin:round;stroke-miterlimit:10;" d="M227.272,202.473
					c1.844,0.23,2.996-0.922,2.996-0.922s-1.152-1.613-1.383-4.378c-0.23-2.765,2.074-4.379,2.074-4.379s2.074-2.074,2.535-0.461"/>
				<path style="fill:none;stroke:#263238;stroke-linecap:round;stroke-linejoin:round;stroke-miterlimit:10;" d="M228.194,205.699
					c0,0-2.074,0.691-4.148,0"/>
				<path style="fill:none;stroke:#263238;stroke-linecap:round;stroke-linejoin:round;stroke-miterlimit:10;" d="M221.05,192.564
					c0,0,2.535-1.844,5.3,0"/>
			</g>
			<polygon style="fill:#FFFFFF;stroke:#263238;stroke-linecap:round;stroke-linejoin:round;stroke-miterlimit:10;" points="
				214.084,212.327 220.264,223.142 217.346,232.413 212.195,219.194 			"/>
			<polygon style="fill:#FFFFFF;stroke:#263238;stroke-linecap:round;stroke-linejoin:round;stroke-miterlimit:10;" points="
				220.264,223.142 225.243,235.16 218.719,228.293 			"/>
			<polygon style="fill:#FFFFFF;stroke:#263238;stroke-linecap:round;stroke-linejoin:round;stroke-miterlimit:10;" points="
				225.243,235.16 229.192,223.657 226.532,216.614 			"/>
			<polygon style="fill:#FFFFFF;stroke:#263238;stroke-linecap:round;stroke-linejoin:round;stroke-miterlimit:10;" points="
				229.192,223.657 231.767,231.555 227.99,228.293 			"/>
		</g>
	</g>
</g>
<g id="Desk">
	<g>
		<g>
			
				<rect x="206.44" y="275.44" style="fill:#FFFFFF;stroke:#263238;stroke-linecap:round;stroke-linejoin:round;stroke-miterlimit:10;" width="67.909" height="2.74"/>
			
				<rect x="225.587" y="275.44" style="fill:#FFFFFF;stroke:#263238;stroke-linecap:round;stroke-linejoin:round;stroke-miterlimit:10;" width="67.909" height="2.74"/>
			
				<rect x="247.845" y="227.337" style="fill:#FFFFFF;stroke:#263238;stroke-linecap:round;stroke-linejoin:round;stroke-miterlimit:10;" width="56.628" height="43.232"/>
			
				<rect x="250.188" y="227.337" style="fill:#263238;stroke:#263238;stroke-linecap:round;stroke-linejoin:round;stroke-miterlimit:10;" width="56.628" height="43.232"/>
			
				<rect x="274.852" y="250.475" style="fill:#FFFFFF;stroke:#263238;stroke-linecap:round;stroke-linejoin:round;stroke-miterlimit:10;" width="14.614" height="27.705"/>
			
				<rect x="311.723" y="265.94" style="fill:#FFFFFF;stroke:#263238;stroke-linecap:round;stroke-linejoin:round;stroke-miterlimit:10;" width="47.609" height="11.356"/>
			
				<rect x="332.668" y="265.94" style="fill:#FFFFFF;stroke:#263238;stroke-linecap:round;stroke-linejoin:round;stroke-miterlimit:10;" width="26.663" height="11.356"/>
			<g>
				<g>
					<path style="fill:#263238;" d="M372.704,275.958c-0.814,0-1.482-0.65-1.499-1.468l-0.335-15.748l-7.452-19.437l-17.85,6.954
						c-0.772,0.298-1.642-0.08-1.942-0.854c-0.301-0.772,0.081-1.642,0.854-1.942l19.256-7.501c0.371-0.145,0.786-0.135,1.151,0.026
						c0.364,0.162,0.65,0.462,0.793,0.834l8.086,21.089c0.063,0.162,0.096,0.332,0.1,0.505l0.341,16.008
						c0.018,0.828-0.64,1.515-1.468,1.532C372.726,275.958,372.715,275.958,372.704,275.958z"/>
				</g>
				
					<rect x="362.877" y="271.618" style="fill:#263238;stroke:#263238;stroke-linecap:round;stroke-linejoin:round;stroke-miterlimit:10;" width="19.655" height="5.678"/>
				<circle style="fill:#263238;" cx="364.279" cy="237.36" r="3.494"/>
				<path style="fill:#263238;" d="M375.722,259.274c0-1.93-1.564-3.494-3.494-3.494s-3.494,1.564-3.494,3.494
					c0,1.93,1.564,3.494,3.494,3.494S375.722,261.204,375.722,259.274z"/>
				<polygon style="fill:#263238;" points="343.876,241.604 330.695,240.785 338.938,258.885 346.974,248.405 				"/>
			</g>
			
				<rect x="140.983" y="281.834" style="fill:#263238;stroke:#263238;stroke-linecap:round;stroke-linejoin:round;stroke-miterlimit:10;" width="251.039" height="117.389"/>
			
				<rect x="140.983" y="281.834" style="fill:#C6FF00;stroke:#263238;stroke-linecap:round;stroke-linejoin:round;stroke-miterlimit:10;" width="49.369" height="117.389"/>
			<g>
				<polygon style="fill:#FFFFFF;stroke:#263238;stroke-linecap:round;stroke-linejoin:round;stroke-miterlimit:10;" points="
					188.488,277.74 173.554,277.74 169.481,259.411 184.415,259.411 				"/>
				<polygon style="fill:#FFFFFF;stroke:#263238;stroke-linecap:round;stroke-linejoin:round;stroke-miterlimit:10;" points="
					186.791,277.74 171.857,277.74 167.784,259.411 182.718,259.411 				"/>
				<polygon style="fill:#FFFFFF;stroke:#263238;stroke-linecap:round;stroke-linejoin:round;stroke-miterlimit:10;" points="
					172.536,277.74 179.726,277.74 181.687,268.915 174.497,268.915 				"/>
			</g>
			
				<rect x="138.243" y="277.267" style="fill:#C6FF00;stroke:#263238;stroke-linecap:round;stroke-linejoin:round;stroke-miterlimit:10;" width="256.519" height="7.307"/>
			
				<rect x="193.632" y="277.267" style="fill:#263238;stroke:#263238;stroke-linecap:round;stroke-linejoin:round;stroke-miterlimit:10;" width="201.13" height="7.307"/>
			
				<line style="fill:none;stroke:#FFFFFF;stroke-linecap:round;stroke-linejoin:round;stroke-miterlimit:10;" x1="193.632" y1="284.574" x2="382.546" y2="284.574"/>
		</g>
		<g>
			
				<rect x="131.132" y="341.223" style="fill:#FFFFFF;stroke:#263238;stroke-linecap:round;stroke-linejoin:round;stroke-miterlimit:10;" width="38" height="58"/>
			<path style="fill:#FFFFFF;stroke:#263238;stroke-linecap:round;stroke-linejoin:round;stroke-miterlimit:10;" d="M169.132,389.51
				v-2.828l-1.933-1.933l1.933-1.933v-4.129l-1.933-1.933l1.933-1.933v-4.129l-1.933-1.933l1.933-1.933v-4.129l-1.933-1.933
				l1.933-1.933v-4.129l-1.933-1.933l1.933-1.933v-4.129l-1.933-1.933l1.933-1.933v-1.615h-1.213l-2.134,2.134l-2.134-2.134h-3.728
				l-2.134,2.134l-2.134-2.134h-3.728l-2.134,2.134l-2.134-2.134h-3.728l-2.134,2.134l-2.134-2.134h-3.728l-2.134,2.134
				l-2.134-2.134h-0.537v2.292l1.257,1.257l-1.257,1.257v5.482l1.257,1.256l-1.257,1.256v5.483l1.257,1.257l-1.257,1.257v5.482
				l1.257,1.256l-1.257,1.257v5.482l1.257,1.257l-1.257,1.257v5.483l1.257,1.257l-1.257,1.257v2.828l2.671-2.671l2.584,2.584
				l-5.254,5.254v2.828l6.668-6.668l2.583,2.583l-6.479,6.479h2.828l5.065-5.065l2.584,2.584l-2.481,2.481h2.828l1.067-1.067
				l1.067,1.067h2.828l-2.481-2.481l2.584-2.584l2.584,2.584l-2.481,2.481h2.828l1.067-1.067l1.067,1.067h2.828l-2.481-2.481
				l2.584-2.584l5.065,5.065h2.828l-6.479-6.479l2.583-2.583l7.345,7.345v-2.828l-5.931-5.931l2.584-2.584L169.132,389.51z
				 M168.369,380.751l-2.584,2.584l-2.584-2.584l2.584-2.584L168.369,380.751z M155.206,364.76l2.584-2.584l2.584,2.584
				l-2.584,2.584L155.206,364.76z M156.375,368.758l-2.584,2.584l-2.584-2.584l2.584-2.584L156.375,368.758z M153.792,363.346
				l-2.584-2.584l2.584-2.584l2.584,2.584L153.792,363.346z M152.378,364.76l-2.584,2.584l-2.584-2.584l2.584-2.584L152.378,364.76z
				 M148.38,368.758l-2.584,2.584l-2.584-2.584l2.584-2.584L148.38,368.758z M145.796,363.346l-2.584-2.584l2.584-2.584l2.584,2.584
				L145.796,363.346z M144.382,364.76l-2.584,2.584l-2.584-2.584l2.584-2.584L144.382,364.76z M144.382,372.755l-2.584,2.584
				l-2.584-2.584l2.584-2.584L144.382,372.755z M145.796,374.169l2.584,2.584l-2.584,2.584l-2.584-2.584L145.796,374.169z
				 M147.21,372.755l2.584-2.584l2.584,2.584l-2.584,2.584L147.21,372.755z M153.792,374.169l2.583,2.584l-2.584,2.584l-2.584-2.584
				L153.792,374.169z M155.206,372.755l2.584-2.584l2.584,2.584l-2.584,2.584L155.206,372.755z M159.203,368.758l2.584-2.584
				l2.584,2.584l-2.584,2.584L159.203,368.758z M159.203,360.762l2.584-2.584l2.584,2.584l-2.584,2.584L159.203,360.762z
				 M161.787,355.35l-2.584-2.584l2.584-2.584l2.584,2.584L161.787,355.35z M160.373,356.764l-2.584,2.584l-2.584-2.584l2.584-2.584
				L160.373,356.764z M153.792,355.35l-2.584-2.584l2.584-2.584l2.584,2.584L153.792,355.35z M152.378,356.764l-2.584,2.584
				l-2.584-2.584l2.584-2.584L152.378,356.764z M145.796,355.35l-2.584-2.584l2.584-2.584l2.584,2.584L145.796,355.35z
				 M144.382,356.764l-2.584,2.584l-2.584-2.584l2.584-2.584L144.382,356.764z M137.801,355.35l-2.584-2.584l2.584-2.584
				l2.584,2.584L137.801,355.35z M140.384,360.762l-2.584,2.584l-2.584-2.584l2.584-2.584L140.384,360.762z M140.384,368.758
				l-2.584,2.584l-2.584-2.584l2.584-2.584L140.384,368.758z M140.384,376.753l-2.584,2.584l-2.584-2.584l2.584-2.584
				L140.384,376.753z M141.798,378.167l2.584,2.584l-2.584,2.584l-2.584-2.584L141.798,378.167z M145.796,382.165l2.584,2.584
				l-2.584,2.584l-2.583-2.583L145.796,382.165z M147.21,380.751l2.584-2.584l2.583,2.584l-2.583,2.584L147.21,380.751z
				 M153.791,382.165l2.584,2.584l-2.583,2.583l-2.584-2.584L153.791,382.165z M155.206,380.751l2.584-2.584l2.584,2.584
				l-2.584,2.584L155.206,380.751z M159.203,376.753l2.584-2.584l2.584,2.584l-2.584,2.584L159.203,376.753z M168.369,372.755
				l-2.584,2.584l-2.584-2.584l2.584-2.584L168.369,372.755z M168.369,364.76l-2.584,2.584l-2.584-2.584l2.584-2.584L168.369,364.76
				z M168.369,356.764l-2.584,2.584l-2.584-2.584l2.584-2.584L168.369,356.764z M168.368,348.769l-2.583,2.583l-2.584-2.584
				l2.583-2.583L168.368,348.769z M161.787,342.187l2.584,2.584l-2.583,2.584l-2.584-2.584L161.787,342.187z M160.373,348.769
				l-2.584,2.584l-2.584-2.584l2.584-2.584L160.373,348.769z M153.792,342.187l2.584,2.584l-2.584,2.584l-2.584-2.584
				L153.792,342.187z M152.378,348.769l-2.584,2.584l-2.584-2.584l2.584-2.584L152.378,348.769z M145.796,342.187l2.584,2.584
				l-2.584,2.584l-2.584-2.584L145.796,342.187z M144.382,348.769l-2.584,2.584l-2.584-2.584l2.584-2.584L144.382,348.769z
				 M137.801,342.187l2.583,2.584l-2.584,2.584l-2.583-2.584L137.801,342.187z M131.219,348.769l2.584-2.584l2.583,2.583
				l-2.584,2.584L131.219,348.769z M131.219,356.764l2.584-2.584l2.584,2.584l-2.584,2.584L131.219,356.764z M131.219,364.76
				l2.584-2.584l2.584,2.584l-2.584,2.584L131.219,364.76z M131.219,372.755l2.584-2.584l2.584,2.584l-2.584,2.584L131.219,372.755z
				 M131.219,380.751l2.584-2.584l2.584,2.584l-2.584,2.584L131.219,380.751z M135.217,384.749l2.584-2.584l2.584,2.584
				l-2.584,2.584L135.217,384.749z M139.215,388.746l2.584-2.584l2.584,2.583l-2.584,2.584L139.215,388.746z M145.796,395.328
				l-2.584-2.584l2.584-2.584l2.584,2.584L145.796,395.328z M147.21,388.746l2.584-2.584l2.584,2.584l-2.584,2.584L147.21,388.746z
				 M153.792,395.328l-2.584-2.584l2.584-2.584l2.584,2.584L153.792,395.328z M157.79,391.33l-2.584-2.584l2.584-2.583l2.584,2.584
				L157.79,391.33z M161.787,387.332l-2.584-2.584l2.584-2.584l2.584,2.584L161.787,387.332z"/>
			
				<rect x="131.132" y="390.745" style="fill:#FFFFFF;stroke:#263238;stroke-linecap:round;stroke-linejoin:round;stroke-miterlimit:10;" width="38" height="8.478"/>
		</g>
	</g>
</g>
<g id="Plants">
	<g>
		<g>
			<path style="fill:#C6FF00;" d="M397.846,227.897c0,0-4.238,4.843-6.659,14.529c-2.422,9.686,8.475,16.951,4.843,27.243
				c-3.632,10.292-10.292,15.135-8.475,25.426c1.816,10.292,9.686,10.897,3.632,22.4c-6.054,11.502-11.502,15.74-9.686,26.637
				c1.816,10.897,24.821,24.821,24.821,24.821s15.74-17.556,16.346-29.059c0.605-11.503-13.924-18.767-11.502-29.059
				c2.422-10.292,8.475-18.767,7.87-28.453c-0.605-9.686-12.108-16.951-12.108-24.216c0-7.265,4.843-11.503,4.843-19.978
				c0-8.475-10.897-15.74-10.897-20.583c0-4.843,2.422-10.897,2.422-10.897S391.792,213.973,397.846,227.897z"/>
			<path style="opacity:0.5;fill:#FFFFFF;" d="M397.846,227.897c0,0-4.238,4.843-6.659,14.529
				c-2.422,9.686,8.475,16.951,4.843,27.243c-3.632,10.292-10.292,15.135-8.475,25.426c1.816,10.292,9.686,10.897,3.632,22.4
				c-6.054,11.502-11.502,15.74-9.686,26.637c1.816,10.897,24.821,24.821,24.821,24.821s15.74-17.556,16.346-29.059
				c0.605-11.503-13.924-18.767-11.502-29.059c2.422-10.292,8.475-18.767,7.87-28.453c-0.605-9.686-12.108-16.951-12.108-24.216
				c0-7.265,4.843-11.503,4.843-19.978c0-8.475-10.897-15.74-10.897-20.583c0-4.843,2.422-10.897,2.422-10.897
				S391.792,213.973,397.846,227.897z"/>
		</g>
		<g>
			
				<line style="fill:none;stroke:#263238;stroke-linecap:round;stroke-linejoin:round;stroke-miterlimit:10;" x1="403.9" y1="365.321" x2="402.689" y2="234.557"/>
			<polyline style="fill:none;stroke:#263238;stroke-linecap:round;stroke-linejoin:round;stroke-miterlimit:10;" points="
				416.113,335.389 404.25,347.251 390.806,335.389 			"/>
			<polyline style="fill:none;stroke:#263238;stroke-linecap:round;stroke-linejoin:round;stroke-miterlimit:10;" points="
				412.159,283.193 403.459,296.638 395.946,284.379 			"/>
			<polyline style="fill:none;stroke:#263238;stroke-linecap:round;stroke-linejoin:round;stroke-miterlimit:10;" points="
				397.923,243.651 403.064,249.978 407.413,242.465 			"/>
		</g>
		
			<rect x="388.765" y="365.321" style="fill:#C6FF00;stroke:#263238;stroke-linecap:round;stroke-linejoin:round;stroke-miterlimit:10;" width="30.27" height="33.902"/>
		
			<rect x="397.066" y="365.321" style="fill:#C6FF00;stroke:#263238;stroke-linecap:round;stroke-linejoin:round;stroke-miterlimit:10;" width="23.521" height="33.902"/>
	</g>
</g>
<g id="Ground">
	
		<line style="fill:none;stroke:#263238;stroke-width:2;stroke-linecap:round;stroke-linejoin:round;stroke-miterlimit:10;" x1="67.212" y1="399.223" x2="446.546" y2="399.223"/>
</g>
</svg>
