<?xml version="1.0" encoding="utf-8"?><svg version="1.1" id="Layer_1" xmlns="http://www.w3.org/2000/svg" xmlns:xlink="http://www.w3.org/1999/xlink" x="0px" y="0px" viewBox="0 0 103.24 122.88" style="enable-background:new 0 0 103.24 122.88" xml:space="preserve"><style type="text/css">.st0{fill-rule:evenodd;clip-rule:evenodd;}</style><g><path fill="#ffffff" class="st0" d="M12.26,21.44C29.87,2.01,50.18-8.56,65.43,8.73c4,0.19,7.57,1.52,10.57,4.34c6.28,5.89,7.23,16.92,4.38,25.69 v7.63c1.94,1.27,3.18,3.66,3.76,6.39c0.37,1.76,0.46,3.69,0.29,5.54c-0.18,1.91-0.65,3.75-1.41,5.24c-1.09,2.15-2.75,3.66-5,3.99 c-2.2,2.34-4.35,4.84-6.28,7.26c-2.11,2.65-3.92,5.16-5.16,7.21c-0.96,1.59-0.66,2.63-0.31,3.81c0.17,0.59,0.35,1.2,0.48,1.88 c3.85,0.84,7.34,1.49,10.47,2.08c19.87,3.72,26.03,4.87,26.03,30.71c0,1.32-1.07,2.38-2.38,2.38H51.62H2.38 c-1.32,0-2.38-1.07-2.38-2.38C0,94.66,6.16,93.5,26.03,89.78c3.15-0.59,6.66-1.25,10.54-2.09c0.13-0.51,0.3-0.99,0.47-1.47 c0.4-1.14,0.8-2.28-0.37-4.2c-1.24-2.05-3.05-4.56-5.16-7.21c-1.92-2.42-4.08-4.92-6.28-7.26c-2.25-0.33-3.91-1.85-5-3.99 c-0.76-1.5-1.23-3.34-1.41-5.24c-0.18-1.85-0.08-3.78,0.29-5.54c0.57-2.72,1.8-5.09,3.72-6.37l-2.58-1.53 C19.56,37.23,21.57,23.95,12.26,21.44L12.26,21.44z M75.62,36.7c-0.43-3.15-1.25-5.79-2.42-8c-1.5-1.87-3.68-3.46-6.48-5.51 l-0.32-0.23c-0.59-0.44-1.19-0.85-1.79-1.23c-9.42,6.11-13.98,4.68-21.58,5.93c-6.89,1.13-12.48,3.69-15.41,8.37 c0,0.12,0,0.25,0,0.37v11.5c0,1.13-0.79,2.08-1.85,2.32c-0.96,0.29-1.65,1.73-2.02,3.53c-0.27,1.31-0.34,2.75-0.21,4.13 c0.13,1.32,0.43,2.56,0.93,3.53c0.44,0.87,1.01,1.46,1.67,1.47l0.14,0c0.69-0.01,1.32,0.27,1.76,0.74l0,0 c2.52,2.65,5.01,5.51,7.19,8.25c2.19,2.75,4.11,5.43,5.49,7.71c2.33,3.84,1.56,6.03,0.8,8.22c-0.22,0.63-0.44,1.27-0.44,1.87 c0,1.2-0.89,2.19-2.04,2.36c-4.59,1.03-8.59,1.78-12.13,2.44C10.64,97.5,5.18,98.53,4.79,118.12h46.83h46.83 C98.06,98.53,92.6,97.5,76.34,94.45c-3.58-0.67-7.64-1.43-12.31-2.48c-1.1-0.25-1.86-1.23-1.85-2.32h-0.01 c0-0.93-0.24-1.74-0.46-2.5c-0.65-2.23-1.23-4.21,0.81-7.58c1.38-2.28,3.3-4.96,5.49-7.71c2.18-2.74,4.67-5.6,7.19-8.25 c0.51-0.53,1.2-0.78,1.88-0.73l0.01,0c0.66-0.01,1.23-0.6,1.67-1.47c0.49-0.97,0.8-2.21,0.93-3.53c0.13-1.38,0.06-2.82-0.21-4.13 c-0.38-1.83-1.09-3.29-2.07-3.54c-1.08-0.27-1.8-1.24-1.8-2.31h0V36.7L75.62,36.7z"/></g></svg>