<?xml version="1.0" encoding="utf-8"?><svg version="1.1" id="Layer_1" xmlns="http://www.w3.org/2000/svg" xmlns:xlink="http://www.w3.org/1999/xlink" x="0px" y="0px" viewBox="0 0 80.74 122.88" style="enable-background:new 0 0 80.74 122.88" xml:space="preserve"><g><path fill="#ffffff" d="M49.14,122.88h-23.3c-1.57,0-3-0.64-4.03-1.67c-1.03-1.03-1.67-2.46-1.67-4.03V98.47c0-1.57,0.64-3,1.67-4.03 c1.03-1.03,2.46-1.67,4.03-1.67h23.3c1.57,0,3,0.64,4.03,1.67c1.03,1.03,1.67,2.46,1.67,4.03v18.71c0,1.57-0.64,3-1.67,4.03 C52.14,122.24,50.71,122.88,49.14,122.88L49.14,122.88z M20.1,78.75c0.02-1.73,0.12-3.35,0.29-4.83c0.17-1.55,0.43-3.04,0.77-4.46 c0.38-1.57,0.84-3.01,1.4-4.3c0.58-1.36,1.26-2.59,2.04-3.69l0.05-0.07l0,0l0.13-0.17l0.04-0.05c0.69-0.95,1.47-1.91,2.36-2.87 c0.92-0.99,1.94-2,3.06-3.01c1.06-0.96,2.3-1.99,3.71-3.09c1.32-1.04,2.79-2.12,4.39-3.24c0.07-0.06,0.14-0.12,0.22-0.17 c0.08-0.06,0.17-0.11,0.26-0.15c0.52-0.34,1.03-0.7,1.53-1.08c0.51-0.4,1-0.83,1.47-1.28c0.45-0.44,0.87-0.91,1.26-1.39 c0.38-0.47,0.71-0.94,1.01-1.41c0.02-0.04,0.04-0.07,0.07-0.11l0,0c0.3-0.48,0.56-0.96,0.77-1.46c0.21-0.48,0.39-1.02,0.55-1.62 c0.15-0.56,0.27-1.16,0.34-1.8c0.08-0.64,0.12-1.31,0.12-2.02c0-0.71-0.04-1.34-0.12-1.91c-0.08-0.57-0.2-1.07-0.35-1.52 c-0.14-0.41-0.3-0.79-0.5-1.13c-0.19-0.34-0.42-0.65-0.68-0.94l-0.05-0.05l0,0l-0.07-0.08c-0.2-0.2-0.41-0.37-0.63-0.51 c-0.25-0.16-0.54-0.31-0.88-0.44l-0.05-0.02l0,0l-0.05-0.02c-0.39-0.14-0.81-0.25-1.25-0.32c-0.47-0.07-1.02-0.11-1.67-0.11 c-0.49,0-0.92,0.03-1.28,0.09c-0.36,0.06-0.71,0.15-1.03,0.27c-0.29,0.11-0.57,0.24-0.84,0.41c-0.27,0.16-0.53,0.36-0.78,0.59 c-0.19,0.18-0.36,0.37-0.5,0.58c-0.16,0.23-0.29,0.5-0.41,0.79c-0.14,0.36-0.25,0.79-0.34,1.29c-0.1,0.55-0.15,1.12-0.17,1.71 l0,0.03c-0.05,1.53-0.69,2.91-1.71,3.9c-0.96,0.93-2.23,1.53-3.64,1.61c-0.11,0.01-0.21,0.02-0.32,0.02H5.83 c-1.28,0-2.47-0.43-3.43-1.15c-0.96-0.73-1.69-1.76-2.04-2.96l-0.04-0.11c-0.13-0.36-0.22-0.73-0.27-1.08 C0,35.04-0.01,34.68,0.01,34.31c-0.02-2.71,0.18-5.25,0.6-7.61c0.44-2.45,1.11-4.76,2.03-6.93c0.96-2.27,2.17-4.35,3.63-6.23 c1.46-1.89,3.17-3.59,5.12-5.09c1.87-1.44,3.87-2.69,5.99-3.75c2.1-1.05,4.37-1.93,6.79-2.64c2.34-0.68,4.81-1.2,7.39-1.54 C34.18,0.17,36.87,0,39.63,0c3.01,0,5.89,0.2,8.65,0.59c2.75,0.39,5.36,0.99,7.84,1.78C58.64,3.18,61,4.2,63.2,5.43 c2.13,1.19,4.11,2.58,5.94,4.17c0.11,0.08,0.21,0.17,0.31,0.26l0.03,0.03c1.85,1.64,3.46,3.41,4.85,5.32 c1.42,1.96,2.62,4.08,3.58,6.37c0.95,2.25,1.66,4.62,2.12,7.1c0.47,2.49,0.7,5.09,0.7,7.79c0,1.69-0.13,3.39-0.4,5.1 c-0.26,1.69-0.65,3.33-1.17,4.94c-0.52,1.62-1.17,3.19-1.95,4.71c-0.77,1.52-1.67,3-2.69,4.43l0,0c-0.04,0.06-0.09,0.13-0.15,0.2 l0,0c-0.94,1.32-1.99,2.61-3.13,3.88c-1.11,1.23-2.28,2.38-3.49,3.44c-1.27,1.11-2.59,2.13-3.95,3.06 c-1.3,0.89-2.67,1.72-4.13,2.49c-0.53,0.36-1.01,0.7-1.42,1.04c-0.42,0.34-0.8,0.69-1.13,1.03c-0.04,0.04-0.07,0.07-0.11,0.11 c-0.22,0.24-0.42,0.49-0.62,0.77c-0.18,0.26-0.33,0.52-0.45,0.77l-0.04,0.08l-0.01,0.02c-0.02,0.03-0.03,0.07-0.05,0.1 c-0.12,0.29-0.24,0.61-0.34,0.97c-0.11,0.4-0.22,0.87-0.31,1.42c-0.1,0.58-0.18,1.22-0.23,1.9c-0.05,0.68-0.08,1.44-0.08,2.29 c0,1.57-0.64,3-1.67,4.03c-1.03,1.03-2.46,1.67-4.03,1.67H25.77c-1.57,0-3-0.64-4.03-1.67c-0.06-0.06-0.12-0.12-0.17-0.19 c-0.93-1.01-1.5-2.36-1.5-3.84c0-0.01,0-0.08,0.01-0.27C20.09,78.88,20.1,78.82,20.1,78.75L20.1,78.75z M25.48,74.48 c-0.16,1.4-0.24,2.85-0.27,4.35c0,0.11,0,0.22-0.01,0.33l0,0.02c0,0.09,0.01-0.08,0.01,0.03c0,0.13,0.04,0.25,0.11,0.35l0.05,0.05 c0.1,0.1,0.24,0.16,0.4,0.16h23.44c0.16,0,0.3-0.06,0.4-0.16c0.1-0.1,0.16-0.24,0.16-0.4c0-0.91,0.03-1.79,0.1-2.65 c0.06-0.86,0.16-1.66,0.29-2.4c0.12-0.67,0.27-1.33,0.45-1.98c0.17-0.58,0.36-1.12,0.58-1.62c0.02-0.05,0.04-0.11,0.07-0.16 l0.02-0.03l0.01-0.03c0.25-0.55,0.56-1.08,0.93-1.61c0.3-0.42,0.66-0.87,1.09-1.32c0.04-0.05,0.09-0.11,0.14-0.16 c0.47-0.49,1-0.97,1.59-1.45c0.58-0.48,1.21-0.94,1.88-1.38l0,0c0.07-0.05,0.15-0.09,0.23-0.13c1.28-0.67,2.54-1.43,3.78-2.28 c1.22-0.84,2.38-1.73,3.47-2.68c1.09-0.95,2.11-1.96,3.07-3.02c0.94-1.03,1.85-2.18,2.75-3.43l0,0c0.03-0.03,0.05-0.07,0.08-0.1 l0,0l0,0l0.01-0.01c0,0,0,0,0.02-0.03l0,0l0.02-0.02c0.88-1.23,1.65-2.5,2.31-3.79c0.66-1.3,1.21-2.63,1.64-3.97 c0.44-1.37,0.77-2.76,0.99-4.16c0.21-1.37,0.32-2.81,0.32-4.32c0-2.42-0.2-4.71-0.6-6.85c-0.4-2.15-1.01-4.17-1.8-6.06 c-0.8-1.89-1.8-3.68-3.02-5.35c-1.21-1.66-2.61-3.19-4.2-4.59l-0.04-0.04c-1.59-1.41-3.34-2.64-5.23-3.69 c-1.9-1.06-3.96-1.95-6.16-2.65c-2.18-0.7-4.51-1.23-7-1.58c-2.48-0.35-5.12-0.53-7.92-0.53c-2.63,0-5.1,0.15-7.4,0.46 C29.9,5.9,27.69,6.36,25.6,6.97c-2.08,0.61-4.06,1.38-5.93,2.32c-1.86,0.93-3.57,2-5.15,3.21c-1.61,1.24-3.01,2.63-4.2,4.17 c-1.2,1.55-2.18,3.24-2.97,5.09c-0.75,1.78-1.32,3.72-1.69,5.83c-0.38,2.11-0.56,4.34-0.54,6.69c0.01,0.1,0.01,0.2,0,0.3 c0,0.03,0,0.07,0.01,0.11c0.01,0.05,0.02,0.09,0.03,0.12l0.03,0.1c0.03,0.09,0.06,0.17,0.09,0.27c0.03,0.12,0.11,0.22,0.2,0.29 c0.09,0.07,0.21,0.11,0.34,0.11h22.54c0.08-0.01,0.16-0.01,0.24-0.01c0.16,0,0.3-0.06,0.39-0.16c0.1-0.1,0.16-0.22,0.17-0.36 l0-0.02c0.02-0.91,0.1-1.74,0.23-2.47c0.14-0.79,0.35-1.54,0.62-2.25c0.25-0.65,0.56-1.25,0.93-1.79c0.38-0.57,0.82-1.08,1.31-1.52 c0.49-0.44,1.01-0.83,1.56-1.17c0.55-0.34,1.14-0.62,1.76-0.85c0.61-0.22,1.27-0.39,1.97-0.51c0.7-0.11,1.39-0.17,2.09-0.17 c0.83,0,1.65,0.06,2.46,0.19c0.83,0.13,1.58,0.32,2.26,0.57l0,0c0.03,0.01,0.07,0.03,0.1,0.04l0.1,0.04 c0.62,0.24,1.22,0.56,1.78,0.93c0.55,0.36,1.06,0.77,1.5,1.23c0.06,0.06,0.12,0.12,0.18,0.19l0.12,0.14l0,0 c0.48,0.54,0.9,1.12,1.26,1.75c0.37,0.65,0.68,1.33,0.92,2.05c0.26,0.76,0.45,1.57,0.57,2.42c0.12,0.85,0.18,1.72,0.18,2.63 c0,0.9-0.05,1.78-0.16,2.64c-0.11,0.85-0.27,1.69-0.48,2.5c-0.21,0.77-0.48,1.54-0.81,2.32c-0.33,0.76-0.7,1.47-1.12,2.14 l-0.01,0.02c-0.44,0.71-0.91,1.38-1.41,2c-0.51,0.63-1.06,1.25-1.66,1.83c-0.58,0.57-1.22,1.13-1.91,1.67 c-0.59,0.46-1.22,0.91-1.91,1.34c-0.06,0.05-0.12,0.09-0.18,0.13l-0.14,0.09l0,0c-1.5,1.06-2.9,2.08-4.17,3.08 c-1.23,0.96-2.37,1.92-3.43,2.87c-1.02,0.92-1.93,1.81-2.72,2.67c-0.76,0.83-1.42,1.62-1.97,2.39c-0.03,0.05-0.07,0.1-0.11,0.15 l-0.12,0.16c-0.56,0.8-1.05,1.7-1.48,2.69c-0.46,1.07-0.84,2.24-1.14,3.48C25.86,71.8,25.64,73.08,25.48,74.48L25.48,74.48z M25.84,117.75h23.3c0.16,0,0.3-0.06,0.4-0.16c0.1-0.1,0.16-0.24,0.16-0.4V98.47c0-0.16-0.06-0.3-0.16-0.4 c-0.1-0.1-0.24-0.16-0.4-0.16h-23.3c-0.16,0-0.3,0.06-0.4,0.16c-0.1,0.1-0.16,0.24-0.16,0.4v18.71c0,0.16,0.06,0.3,0.16,0.4 C25.55,117.68,25.69,117.75,25.84,117.75L25.84,117.75z"/></g></svg>