<?xml version="1.0" encoding="utf-8"?><svg version="1.1" id="Layer_1" xmlns="http://www.w3.org/2000/svg" xmlns:xlink="http://www.w3.org/1999/xlink" x="0px" y="0px" viewBox="0 0 122.88 114.14" style="enable-background:new 0 0 122.88 114.14" xml:space="preserve"><style type="text/css"><![CDATA[
	.st0{fill-rule:evenodd;clip-rule:evenodd;}
]]></style><g><path fill="#ffffff" class="st0" d="M85.09,63.23v-8.27c0.38-1.6,1.07-2.07,1.86-2.22C89.09,52.41,88.85,62.74,85.09,63.23L85.09,63.23 L85.09,63.23L85.09,63.23z M89.99,39.25l-0.36-13.32l-21.9,6.33c-1.97,0.43-3.92,0.64-5.83,0.65c-2.05,0.01-4.06-0.22-6.04-0.65 l-20.92-6.39v13.51c0.07,0.86,0.44,1.64,1.03,2.36c-0.61,1.62-0.42,3.47,0.82,5.53c-0.06,0.98-0.04,1.95,0.1,2.9l1.17,0.66v1.17 c-0.52-0.6-1.15-0.95-1.84-1.08c-1.43-0.27-2.43,0.53-3,1.98c-0.26,0.66-0.43,1.48-0.5,2.37c-0.06,0.83-0.04,1.75,0.06,2.68 c0.37,3.38,1.92,6.92,4.81,7.34c0.16,0.03,0.32,0.03,0.47,0v0.8c0,0.1,0.01,0.21,0.03,0.31c1.24,5.9,6.14,10.54,10.64,14.27 c10.47,8.67,22.53,4.86,29.87-2.8c4.03-4.21,6.53-7.36,6.34-12.09c0-0.02,0-0.04,0-0.06v-0.43c0.12,0.01,0.24,0.01,0.37-0.01 c2.88-0.42,4.44-3.95,4.81-7.34c0.11-0.93,0.12-1.85,0.06-2.68c-0.07-0.89-0.24-1.7-0.5-2.37c-0.53-1.33-1.41-2.11-2.67-2.02 l1.56-0.98c0.01-0.2,0.02-0.39,0.03-0.58c0.79-2.35,0.65-4.42-0.19-6.23c0.22-0.2,0.4-0.4,0.53-0.61 C89.51,41.57,89.85,40.5,89.99,39.25L89.99,39.25z M41.43,45.12c6.61,2.55,16.44,3.52,20.43,3.71c3.18,0.15,12.37-0.85,19.23-2.66 c0.62,0.99,1.14,2.06,1.55,3.21h-0.02v16.34c-2.92,16.06-21.32,25.4-36.95,9.2c-3.57-3.49-4.31-3.27-5.47-8.84V48.19 C40.43,47.1,40.86,46.07,41.43,45.12L41.43,45.12z M98.86,16.33v16.28h0.52c0.35,0,0.64,0.29,0.64,0.64v4.38 c0,0.35-0.29,0.64-0.64,0.64h-0.52v1.53c0.65,0.12,1.15,0.7,1.15,1.39v0c0,0.77-0.64,1.41-1.41,1.41h-2.53 c-0.78,0-1.41-0.64-1.41-1.41v0c0-0.69,0.5-1.26,1.15-1.39v-1.53H95.3c-0.35,0-0.64-0.29-0.64-0.64v-4.38 c0-0.35,0.29-0.64,0.64-0.64h0.51V17.28l-26.65,8.29c-4.83,1.15-9.65,1.22-14.48,0l-29.41-8.78l-2.66-0.79 c-3.31-1.35-2.48-4.53,0.6-5.27l33.27-9.93c3.43-0.98,6.86-1.13,10.29,0l32.67,9.81c3.55,0.86,4.25,4.15,0.12,5.5L98.86,16.33 L98.86,16.33z M44.8,85.34c6.13,11.86,26.28,12.33,33.28,0c6.01,5.41,27.19,6.5,33.81,10.19c2.09,1.17,3.99,2.66,5.51,4.66 c4.99,6.58,3.74,6.22,5.48,13.95H0c1.85-8.2,2.69-14.03,10.99-18.61C19.81,90.62,37.77,91.67,44.8,85.34L44.8,85.34z M66.37,52.72 c-1.63,0.62-1.98,1.98-1.07,2.49c1.07,0.6,2.43-0.3,3.47-0.63c2.73-0.87,5.98-0.97,8.34,0.51c0.63,0.39,1.27,0.9,1.92,1.52 c-0.24-0.86-0.62-1.65-1.17-2.35C75.51,51.25,69.54,51.08,66.37,52.72L66.37,52.72L66.37,52.72L66.37,52.72z M56.05,52.72 c1.63,0.62,1.98,1.98,1.07,2.49c-1.07,0.6-2.43-0.3-3.47-0.63c-2.73-0.87-5.98-0.97-8.34,0.51c-0.63,0.39-1.27,0.9-1.92,1.52 c0.24-0.86,0.62-1.65,1.17-2.35C46.92,51.25,52.88,51.08,56.05,52.72L56.05,52.72L56.05,52.72L56.05,52.72z M47.54,58.57 c-0.35,0.14-0.73-0.08-0.86-0.47c-0.12-0.4,0.07-0.84,0.42-0.97c2.7-1.05,5.45-0.98,8.16,0c0.35,0.13,0.55,0.56,0.44,0.96 c-0.11,0.4-0.49,0.62-0.84,0.5c-0.45-0.16-0.9-0.3-1.35-0.4c0.05,0.16,0.07,0.33,0.07,0.51c0,1.04-0.84,1.89-1.89,1.89 c-1.04,0-1.89-0.85-1.89-1.89c0-0.26,0.05-0.5,0.14-0.72C49.12,58.06,48.31,58.27,47.54,58.57L47.54,58.57L47.54,58.57z M69.32,58.67c0,1.04,0.85,1.89,1.89,1.89c1.04,0,1.89-0.85,1.89-1.89c0-0.3-0.07-0.58-0.19-0.83c0.82,0.09,1.66,0.27,2.49,0.54 c0.36,0.12,0.73-0.12,0.83-0.53s-0.11-0.83-0.46-0.95c-1.36-0.45-2.72-0.67-4.08-0.66c-1.35,0-2.7,0.23-4.03,0.67 c-0.36,0.12-0.56,0.54-0.46,0.94c0.1,0.4,0.48,0.64,0.83,0.52c0.46-0.15,0.93-0.28,1.41-0.37C69.36,58.22,69.32,58.44,69.32,58.67 L69.32,58.67z M59.1,68.77c-0.37-0.31-0.42-0.86-0.11-1.23s0.86-0.42,1.23-0.11C60.66,67.8,61.08,68,61.48,68 c0.4,0.01,0.84-0.18,1.31-0.57c0.37-0.31,0.92-0.25,1.23,0.12c0.31,0.37,0.25,0.92-0.12,1.23c-0.8,0.66-1.62,0.98-2.44,0.96 C60.56,69.72,59.78,69.34,59.1,68.77L59.1,68.77L59.1,68.77z M56.36,74.45c-0.45-0.24-0.62-0.8-0.38-1.24 c0.24-0.45,0.8-0.62,1.24-0.38c1.42,0.75,2.81,1.13,4.18,1.14c1.37,0,2.74-0.37,4.12-1.13c0.45-0.24,1-0.08,1.25,0.36 c0.24,0.44,0.08,1-0.36,1.25c-1.65,0.91-3.31,1.36-5,1.35C59.62,75.79,57.93,75.28,56.36,74.45L56.36,74.45L56.36,74.45z M37.8,63.23v-8.27c-0.38-1.6-1.07-2.07-1.86-2.22C33.81,52.41,34.01,62.73,37.8,63.23L37.8,63.23L37.8,63.23L37.8,63.23z"/></g></svg>